<svg id="Layer_1" data-name="Layer 1" xmlns="http://www.w3.org/2000/svg" viewBox="0 0 113.39 113.39"><defs><style>.cls-1,.cls-2{fill:#fff;}.cls-2{font-size:12.83px;stroke:#fff;stroke-miterlimit:10;stroke-width:0.25px;font-family:Tajawal-Regular, Tajawal;}</style></defs><title>2</title><path class="cls-1" d="M50,80.76A1.23,1.23,0,0,1,48.59,82H47.06a1.25,1.25,0,0,1-1.4-1.42V79.05c0-.33.16-.5.47-.5s.45.17.45.49v1.58c0,.31.16.46.48.46h1.55a.42.42,0,0,0,.47-.48V75.9a.46.46,0,1,1,.92,0Z"/><path class="cls-1" d="M52.35,79.81c.15,0,.22.16.22.48s-.08.47-.23.47h-.56a1.25,1.25,0,0,1-1.39-1.43V75.92c0-.33.15-.5.45-.5s.46.17.46.49v3.44c0,.31.16.46.49.46Z"/><path class="cls-1" d="M52,79.81h1.11v1H52Z"/><path class="cls-1" d="M52.92,79.81H54v1H52.92Z"/><path class="cls-1" d="M59.22,79.81c.15,0,.23.16.23.47s-.07.48-.22.48H57.59c-.31,0-.47-.11-.45-.34V78.07a.42.42,0,0,0-.46-.47h-.62a.4.4,0,0,0-.46.46v1.26c0,.32.15.49.46.49h.38a.41.41,0,0,1,.46.47q0,.48-.45.48H53.7c-.15,0-.23-.16-.22-.48s.07-.47.22-.47h1a2,2,0,0,1-.05-.51V78.07a1.24,1.24,0,0,1,1.38-1.42h.61c.92,0,1.38.47,1.38,1.43v1.73Z"/><path class="cls-1" d="M58.89,79.81H60v1H58.89Z"/><path class="cls-1" d="M63.85,79.8q.45,0,.45.48c0,.32-.15.47-.46.47H59.9a.41.41,0,0,1-.47-.47q0-.48.45-.48h.86a2,2,0,0,1-.06-.5V78.07a1.25,1.25,0,0,1,1.39-1.43H63a1.7,1.7,0,0,1,1,.35.45.45,0,0,1,.17.66.5.5,0,0,1-.28.25.47.47,0,0,1-.36-.09,1.31,1.31,0,0,0-.56-.22h-1a.42.42,0,0,0-.47.47v1.26a.42.42,0,0,0,.47.48Z"/><path class="cls-1" d="M64.79,75.11a.16.16,0,0,1,0-.32h.15a.81.81,0,0,1,0-.16v-.4q0-.48.45-.48h.5a.14.14,0,0,1,.16.16.13.13,0,0,1-.15.15h-.51c-.1,0-.15.06-.15.17v.41a.13.13,0,0,0,.15.15h.8a.16.16,0,0,1,0,.32ZM68,80.76H66.16a1.25,1.25,0,0,1-1.4-1.42v-.12c0-.33.16-.49.46-.49s.45.16.46.48v.14c0,.31.16.46.48.46h.93V75.89a.42.42,0,0,1,.47-.47c.3,0,.45.17.45.48Zm-3.15-2.21V75.89a.42.42,0,0,1,.47-.47c.3,0,.45.17.45.48v2.65Z"/><path class="cls-1" d="M69.18,75.42a.42.42,0,0,1,.45.48v4.37c0,.33-.15.49-.45.49s-.47-.16-.47-.49V76.38a.4.4,0,0,1-.46-.46.43.43,0,0,1,.46-.49Z"/><path class="cls-1" d="M73.27,76.65a1.24,1.24,0,0,1,1.39,1.42v2.22a.41.41,0,0,1-.46.47H72.66a1.24,1.24,0,0,1-1.38-1.43V78.07a1.24,1.24,0,0,1,1.39-1.42Zm-1.1-1.21a.46.46,0,0,1,.22-.06.43.43,0,0,1,.22.06.39.39,0,0,1,.18.18.49.49,0,0,1,.06.23.5.5,0,0,1-.06.24.46.46,0,0,1-.4.23.43.43,0,0,1-.22-.06.4.4,0,0,1-.17-.17.5.5,0,0,1-.06-.24.49.49,0,0,1,.06-.23A.37.37,0,0,1,72.17,75.44Zm1.57,2.62c0-.31-.15-.46-.47-.46h-.61a.42.42,0,0,0-.46.47v1.25c0,.33.16.49.46.49h1.08Zm-.41-2.62a.43.43,0,0,1,.44,0,.42.42,0,0,1,.17.18.49.49,0,0,1,.06.23.5.5,0,0,1-.06.24.44.44,0,0,1-.16.17.49.49,0,0,1-.23.06.43.43,0,0,1-.22-.06.4.4,0,0,1-.17-.17.43.43,0,0,1,0-.47A.37.37,0,0,1,73.33,75.44Z"/><path class="cls-1" d="M76.66,77.12v3.64A1.22,1.22,0,0,1,75.28,82h-.36a.41.41,0,0,1-.46-.47h0c0-.32.15-.47.46-.47h.35a.42.42,0,0,0,.47-.48V77.13q0-.48.45-.48A.42.42,0,0,1,76.66,77.12Z"/><path class="cls-1" d="M77.9,75.42a.42.42,0,0,1,.46.48v4.37c0,.33-.15.49-.45.49s-.47-.16-.47-.49V76.38a.4.4,0,0,1-.46-.46.43.43,0,0,1,.46-.49Z"/><path class="cls-1" d="M81.87,76.65c.92,0,1.38.48,1.38,1.45v2.19a.4.4,0,0,1-.46.46H80.41c-.92,0-1.38-.49-1.38-1.46v-.07a.42.42,0,0,1,.46-.48c.31,0,.46.16.46.48v.09c0,.33.16.49.47.49h1.91V78.08c0-.32-.15-.48-.46-.48h-.81a.47.47,0,0,1,0-.94Z"/><path class="cls-1" d="M86.88,80.76H85a1.25,1.25,0,0,1-1.39-1.43v-.11c0-.33.15-.49.45-.49a.42.42,0,0,1,.46.48v.14c0,.31.16.46.49.46H86V75.89a.41.41,0,0,1,.46-.47c.31,0,.46.16.46.48Zm-3.14-2.21V75.89a.42.42,0,0,1,.47-.47q.45,0,.45.48v2.65Zm.15,4a.13.13,0,0,1-.15-.15c0-.11.05-.17.15-.17H84a.78.78,0,0,1,0-.16v-.4a.42.42,0,0,1,.46-.48H85a.16.16,0,1,1,0,.31h-.5c-.1,0-.15.06-.15.17v.41c0,.1,0,.15.16.15h.79c.1,0,.15.06.15.17s-.05.15-.16.15Z"/><path class="cls-1" d="M53.53,52.39c0,3-1.39,4.58-4.16,4.58H49c-2.63,0-4-1.62-4.06-4.43,0-.07,0-1.6,0-1.65h2.32c0,.11,0,1.69,0,1.79a1.76,1.76,0,0,0,2,2,1.77,1.77,0,0,0,2-2V46.76h2.29Z"/><path class="cls-1" d="M57.14,54.52h1.15v2.32H54.86v-10h2.28Z"/><path class="cls-1" d="M57.66,54.52h4.06v2.32H57.66Z"/><path class="cls-1" d="M61.09,54.52h4.06v2.32H61.09Z"/><path class="cls-1" d="M64.52,56.84V54.52h1.14V51.06H68v3.46h.38a1.94,1.94,0,0,1,0-.34c0-2.79,1.4-4.3,4.19-4.3h6.42v4.64h1.14v2.32Zm8.11-4.54a1.65,1.65,0,0,0-1.86,1.88c0,.11,0,.23,0,.34h5.83V52.29Z"/><path class="cls-1" d="M76.19,54.52h5.4V49.85h2.55v7h-8Zm2.15,5.91V58.1h2.55v2.33Zm3.21,0V58.1H84.1v2.33Z"/><path class="cls-1" d="M85.4,56.84v-10h2.29v10Z"/><path class="cls-1" d="M60.71,48.83c-.16.11-.35.18-.43,0s0-.08,0-.05c.1-.06.38.15.44.2a4.9,4.9,0,0,1,1,2.17.36.36,0,0,0,.69,0,5.66,5.66,0,0,1,1-2.61c.34-.33-.18-.84-.51-.51a6.28,6.28,0,0,0-1.23,2.93h.69c-.33-.95-.9-3.46-2.44-2.8-.44.18-.37.8-.18,1.12a.93.93,0,0,0,1.37.22c.39-.26,0-.89-.36-.62Z"/><path class="cls-1" d="M60.83,48.54a1.68,1.68,0,0,1-.45,0c-.44-.13-.63.57-.19.7a2.29,2.29,0,0,0,.64.07.36.36,0,0,0,0-.72Z"/><path class="cls-1" d="M85.44,59.86a.83.83,0,0,1,0-.32c0-.82.43-1.85,2.09-1.85v.6c-.53,0-1.42.22-1.42,1"/><path class="cls-1" d="M85.32,60l0-.11a1,1,0,0,1-.06-.39c0-.47.16-2,2.26-2h.17v.95h-.17s-1.25.13-1.2,1.11m-.39-.11v-.18c0-.74.7-1.11,1.42-1.16v-.26a1.61,1.61,0,0,0-1.75,1.67.66.66,0,0,0,0,.15"/><rect class="cls-1" x="84.77" y="59.47" width="2.86" height="0.95"/><polygon class="cls-1" points="45.66 72.15 52.59 72.15 52.59 69.84 47.97 69.84 47.97 67.92 52.59 67.92 52.59 65.61 47.97 65.61 47.97 63.68 52.59 63.68 52.59 61.37 45.66 61.37 45.66 72.15"/><path class="cls-1" d="M53.52,64.45v.39q0,3.07,3.08,3.08h1.54a.68.68,0,0,1,.77.77v.38a.68.68,0,0,1-.77.77H53.52v2.31h4.62q3.07,0,3.08-3.08v-.38c0-2.06-1-3.08-3.08-3.08H56.6a.68.68,0,0,1-.77-.77v-.39a.68.68,0,0,1,.77-.77h4.62V61.37H56.6Q53.52,61.37,53.52,64.45Z"/><path class="cls-1" d="M61.55,64.45v.39c0,2,1,3.08,3.08,3.08h1.53a.68.68,0,0,1,.78.77v.38a.69.69,0,0,1-.78.77H61.55v2.31h4.61c2.06,0,3.08-1,3.08-3.08v-.38c0-2.06-1-3.08-3.08-3.08H64.63a.68.68,0,0,1-.77-.77v-.39a.68.68,0,0,1,.77-.77h4.61V61.37H64.63C62.57,61.37,61.55,62.4,61.55,64.45Z"/><path class="cls-1" d="M72.64,61.37,69.41,72.15h2.3l.72-2.31h4l.71,2.31h2.31L76.18,61.37Zm.49,6.16,1.28-3.85,1.28,3.85Z"/><polygon class="cls-1" points="82.49 69.84 82.49 61.37 80.18 61.37 80.18 72.15 87.11 72.15 87.11 69.84 82.49 69.84"/><rect class="cls-1" x="56.65" y="60.06" width="1.59" height="3.47"/><rect class="cls-1" x="56.65" y="70.05" width="1.59" height="3.19"/><text class="cls-2" transform="translate(18.05 82.04) scale(1.03 1)">ERP</text><path class="cls-1" d="M42.77,63.26a5.08,5.08,0,0,0-2.1-1.63,4.52,4.52,0,0,0-4.36-3.73A6.92,6.92,0,0,0,34,55.45a6.84,6.84,0,0,0-3.73-1.1A6.91,6.91,0,0,0,24,58.44h7a1,1,0,0,1,1,1V69.59a3.39,3.39,0,0,1-.45,1.67H40a3.33,3.33,0,0,0,2.22-1.05C44.14,67.89,44.2,65.17,42.77,63.26Z"/><path class="cls-1" d="M22.47,60.58v-.7a.35.35,0,0,1,.35-.35h7.74a.35.35,0,0,1,.35.35v7.74a.35.35,0,0,1-.35.35h-.7V61.63a1,1,0,0,0-1.05-1.05Z"/><path class="cls-1" d="M29.16,61.63v7.73a.35.35,0,0,1-.35.35h-.7V63.37a1,1,0,0,0-1.05-1H20.72v-.7a.35.35,0,0,1,.35-.35h7.74A.35.35,0,0,1,29.16,61.63Z"/><polygon class="cls-1" points="21.07 71.26 19.18 69.36 21.07 69.36 21.07 71.26"/><path class="cls-1" d="M27.06,63H19.32a.35.35,0,0,0-.35.35v5.29h2.45a.35.35,0,0,1,.35.35v2.45h5.29a.35.35,0,0,0,.35-.35V63.37A.35.35,0,0,0,27.06,63Zm-.91,7.5H22.78a.32.32,0,0,1-.31-.32.31.31,0,0,1,.31-.32h3.37a.31.31,0,0,1,.31.32A.32.32,0,0,1,26.15,70.52Zm0-1.36H22.78a.32.32,0,0,1,0-.63h3.37a.32.32,0,0,1,0,.63Zm-.21-1.71H20.43c-.29,0-.52-.14-.52-.32s.23-.31.52-.31h5.51c.29,0,.52.14.52.31S26.23,67.45,25.94,67.45Zm0-1.32H20.43c-.29,0-.52-.14-.52-.32s.23-.32.52-.32h5.51c.29,0,.52.15.52.32S26.23,66.13,25.94,66.13Zm0-1.38H20.43c-.29,0-.52-.15-.52-.32s.23-.32.52-.32h5.51c.29,0,.52.14.52.32S26.23,64.75,25.94,64.75Z"/></svg>