<svg id="Layer_1" data-name="Layer 1" xmlns="http://www.w3.org/2000/svg" viewBox="0 0 69.77 39.57"><defs><style>.cls-1,.cls-2{fill:#fff;}.cls-2,.cls-4{isolation:isolate;font-size:12.83px;font-family:ArialMT, Arial;}.cls-3{letter-spacing:-0.02em;}.cls-4{fill:none;stroke:#fff;stroke-miterlimit:10;stroke-width:0.25px;}</style></defs><title>2-new</title><path class="cls-1" d="M50,80.76A1.23,1.23,0,0,1,48.79,82H47.06a1.25,1.25,0,0,1-1.4-1.08,1,1,0,0,1,0-.34V79.05c0-.33.16-.5.47-.5s.45.17.45.49v1.58c0,.31.16.46.48.46h1.55a.42.42,0,0,0,.47-.36.24.24,0,0,0,0-.12V75.9a.47.47,0,0,1,.46-.46.46.46,0,0,1,.46.46h0Z" transform="translate(-17.92 -46.76)"/><path class="cls-1" d="M52.35,79.81c.15,0,.22.16.22.48s-.08.47-.23.47h-.56a1.24,1.24,0,0,1-1.39-1.09,1,1,0,0,1,0-.34V75.92c0-.33.15-.5.45-.5s.46.17.46.49v3.44c0,.31.16.46.49.46Z" transform="translate(-17.92 -46.76)"/><path class="cls-1" d="M52,79.81h1.11v1H52Z" transform="translate(-17.92 -46.76)"/><path class="cls-1" d="M52.92,79.81H54v1H52.92Z" transform="translate(-17.92 -46.76)"/><path class="cls-1" d="M59.22,79.81c.15,0,.23.16.23.47s-.07.48-.22.48H57.59c-.31,0-.47-.11-.45-.34V78.07a.42.42,0,0,0-.36-.47h-.72a.4.4,0,0,0-.46.33.29.29,0,0,0,0,.13v1.26c0,.32.15.49.46.49h.38a.41.41,0,0,1,.46.35.24.24,0,0,1,0,.12q0,.48-.45.48H53.7c-.15,0-.23-.16-.22-.48s.07-.47.22-.47h1a1.77,1.77,0,0,1-.05-.51V78.07a1.25,1.25,0,0,1,1-1.42,1.93,1.93,0,0,1,.34,0h.61c.92,0,1.38.47,1.38,1.43v1.73Z" transform="translate(-17.92 -46.76)"/><path class="cls-1" d="M58.89,79.81H60v1H58.89Z" transform="translate(-17.92 -46.76)"/><path class="cls-1" d="M63.85,79.8q.45,0,.45.48c0,.32-.15.47-.46.47H59.9a.41.41,0,0,1-.47-.34.29.29,0,0,1,0-.13q0-.48.45-.48h.86a2.07,2.07,0,0,1-.06-.5V78.07a1.26,1.26,0,0,1,1-1.43,1.93,1.93,0,0,1,.34,0H63A1.73,1.73,0,0,1,64,77a.45.45,0,0,1,.2.6l0,.06a.49.49,0,0,1-.28.25.46.46,0,0,1-.36-.09,1.29,1.29,0,0,0-.56-.22H62a.42.42,0,0,0-.47.36v1.37a.42.42,0,0,0,.35.48.48.48,0,0,0,.12,0Z" transform="translate(-17.92 -46.76)"/><path class="cls-1" d="M64.79,75.11a.16.16,0,0,1,0-.32h.15a.43.43,0,0,1,0-.16v-.4q0-.48.45-.48h.5a.14.14,0,0,1,.16.12v0a.13.13,0,0,1-.11.15h-.55c-.1,0-.15.06-.15.17v.41a.13.13,0,0,0,.11.15h.84a.16.16,0,0,1,0,.32ZM68,80.76H66.16a1.25,1.25,0,0,1-1.4-1.08,1,1,0,0,1,0-.34v-.12c0-.33.16-.49.46-.49s.45.16.46.48v.14c0,.31.16.46.48.46h.93V75.89a.42.42,0,0,1,.36-.47h.11c.3,0,.45.17.45.48Zm-3.15-2.21V75.89a.42.42,0,0,1,.36-.47h.11c.3,0,.45.17.45.48v2.65Z" transform="translate(-17.92 -46.76)"/><path class="cls-1" d="M69.18,75.42a.42.42,0,0,1,.45.38.33.33,0,0,1,0,.1v4.37c0,.33-.15.49-.45.49a.43.43,0,0,1-.47-.49V76.38a.4.4,0,0,1-.46-.33.29.29,0,0,1,0-.13.44.44,0,0,1,.36-.49h.57Z" transform="translate(-17.92 -46.76)"/><path class="cls-1" d="M73.27,76.65a1.24,1.24,0,0,1,1.39,1.06,1.09,1.09,0,0,1,0,.36v2.22a.41.41,0,0,1-.34.47H72.66a1.24,1.24,0,0,1-1.39-1.07,1.45,1.45,0,0,1,0-.36V78.07a1.24,1.24,0,0,1,1-1.42,1.45,1.45,0,0,1,.36,0Zm-1.1-1.21a.43.43,0,0,1,.44,0,.39.39,0,0,1,.18.18.46.46,0,0,1,.06.23.5.5,0,0,1-.06.24.47.47,0,0,1-.4.23.43.43,0,0,1-.22-.06.46.46,0,0,1-.17-.17.5.5,0,0,1-.06-.24.46.46,0,0,1,.06-.23A.33.33,0,0,1,72.17,75.44Zm1.57,2.62c0-.31-.15-.46-.47-.46h-.61a.42.42,0,0,0-.46.37v1.35c0,.33.16.49.46.49h1.08Zm-.41-2.62a.43.43,0,0,1,.44,0,.42.42,0,0,1,.17.18.46.46,0,0,1,.06.23.5.5,0,0,1-.06.24.44.44,0,0,1-.16.17.46.46,0,0,1-.23.06.43.43,0,0,1-.22-.06.46.46,0,0,1-.17-.17.44.44,0,0,1,0-.47A.33.33,0,0,1,73.33,75.44Z" transform="translate(-17.92 -46.76)"/><path class="cls-1" d="M76.66,77.12v3.64A1.23,1.23,0,0,1,75.47,82h-.55a.41.41,0,0,1-.46-.35.24.24,0,0,1,0-.12h0c0-.32.15-.47.46-.47h.35a.42.42,0,0,0,.47-.36.24.24,0,0,0,0-.12V77.13q0-.48.45-.48a.42.42,0,0,1,.47.36Z" transform="translate(-17.92 -46.76)"/><path class="cls-1" d="M77.9,75.42a.42.42,0,0,1,.46.37.21.21,0,0,1,0,.11v4.37c0,.33-.15.49-.45.49a.43.43,0,0,1-.47-.49V76.38a.4.4,0,0,1-.46-.33.29.29,0,0,1,0-.13.44.44,0,0,1,.36-.49h.56Z" transform="translate(-17.92 -46.76)"/><path class="cls-1" d="M81.87,76.65c.92,0,1.38.48,1.38,1.45v2.19a.4.4,0,0,1-.33.46.29.29,0,0,1-.13,0H80.41c-.92,0-1.38-.49-1.38-1.46v-.07a.43.43,0,0,1,.35-.48h.11c.31,0,.46.16.46.48v.09c0,.33.16.49.47.49h1.91V78.08c0-.32-.15-.48-.46-.48h-.81a.47.47,0,0,1,0-.94h.81Z" transform="translate(-17.92 -46.76)"/><path class="cls-1" d="M86.88,80.76H85a1.24,1.24,0,0,1-1.39-1.09,1,1,0,0,1,0-.34v-.11c0-.33.15-.49.45-.49a.42.42,0,0,1,.46.37.21.21,0,0,1,0,.11v.14c0,.31.16.46.49.46h1V75.89a.41.41,0,0,1,.34-.47.48.48,0,0,1,.12,0c.31,0,.46.16.46.48Zm-3.14-2.21V75.89a.42.42,0,0,1,.36-.47h.11q.45,0,.45.48v2.65Zm.15,4a.13.13,0,0,1-.15-.11v0c0-.11.05-.17.15-.17H84a.43.43,0,0,1,0-.16v-.4a.43.43,0,0,1,.35-.48H85a.15.15,0,0,1,.19.12.15.15,0,0,1-.11.19.11.11,0,0,1-.08,0h-.5c-.1,0-.15.06-.15.17v.41c0,.1,0,.15.16.15h.79c.1,0,.15.06.15.17s0,.15-.16.15Z" transform="translate(-17.92 -46.76)"/><path class="cls-1" d="M53.53,52.39c0,3-1.39,4.58-4.16,4.58H49c-2.63,0-4-1.62-4.06-4.43V50.89h2.32v1.79a1.76,1.76,0,0,0,1.48,2,1.51,1.51,0,0,0,.52,0,1.77,1.77,0,0,0,2-1.51,2,2,0,0,0,0-.49V46.76h2.29Z" transform="translate(-17.92 -46.76)"/><path class="cls-1" d="M57.14,54.52h1.15v2.32H54.86v-10h2.28Z" transform="translate(-17.92 -46.76)"/><path class="cls-1" d="M57.66,54.52h4.06v2.32H57.66Z" transform="translate(-17.92 -46.76)"/><path class="cls-1" d="M61.09,54.52h4.06v2.32H61.09Z" transform="translate(-17.92 -46.76)"/><path class="cls-1" d="M64.52,56.84V54.52h1.14V51.06H68v3.46h.38a1.93,1.93,0,0,1,0-.34c0-2.79,1.4-4.3,4.19-4.3H79v4.64h1.14v2.32Zm8.11-4.54a1.64,1.64,0,0,0-1.86,1.41,1.85,1.85,0,0,0,0,.47v.34H76.6V52.29Z" transform="translate(-17.92 -46.76)"/><path class="cls-1" d="M76.19,54.52h5.4V49.85h2.55v7h-8Zm2.15,5.91V58.1h2.55v2.33Zm3.21,0V58.1H84.1v2.33Z" transform="translate(-17.92 -46.76)"/><path class="cls-1" d="M85.4,56.84v-10h2.29v10Z" transform="translate(-17.92 -46.76)"/><path class="cls-1" d="M60.71,48.83c-.16.11-.35.18-.43,0s0-.08,0,0,.38.15.44.2a4.9,4.9,0,0,1,1,2.17.36.36,0,0,0,.45.24.34.34,0,0,0,.24-.24,5.61,5.61,0,0,1,1-2.61c.34-.33-.18-.84-.51-.51A6.31,6.31,0,0,0,61.67,51h.69c-.33-1-.9-3.46-2.44-2.8-.44.18-.37.8-.18,1.12a.92.92,0,0,0,1.28.28l.09-.06c.39-.26,0-.89-.36-.62Z" transform="translate(-17.92 -46.76)"/><path class="cls-1" d="M60.83,48.54a1.69,1.69,0,0,1-.45,0c-.44-.13-.63.57-.19.7a2.29,2.29,0,0,0,.64.07.36.36,0,0,0,0-.72Z" transform="translate(-17.92 -46.76)"/><path class="cls-1" d="M85.44,59.86a.86.86,0,0,1,0-.32c0-.82.43-1.85,2.09-1.85v.6c-.53,0-1.42.22-1.42,1" transform="translate(-17.92 -46.76)"/><path class="cls-1" d="M85.32,60v-.11a.86.86,0,0,1-.06-.39c0-.47.16-2,2.26-2h.17v1h-.17s-1.25.13-1.2,1.11m-.39-.11v-.18c0-.74.7-1.11,1.42-1.16v-.26a1.61,1.61,0,0,0-1.75,1.46v.21a.38.38,0,0,0,0,.15" transform="translate(-17.92 -46.76)"/><rect class="cls-1" x="66.85" y="12.71" width="2.86" height="0.95"/><polygon class="cls-1" points="27.73 25.39 34.66 25.39 34.66 23.08 30.05 23.08 30.05 21.16 34.66 21.16 34.66 18.85 30.05 18.85 30.05 16.92 34.66 16.92 34.66 14.61 27.73 14.61 27.73 25.39"/><path class="cls-1" d="M53.52,64.45v.39c0,2,1,3.07,3.08,3.08h1.54a.68.68,0,0,1,.77.58.61.61,0,0,1,0,.19v.38a.68.68,0,0,1-.58.77H53.52v2.31h4.62c2,0,3.07-1,3.08-3.08v-.38c0-2.06-1-3.08-3.08-3.08H56.6a.68.68,0,0,1-.77-.58.61.61,0,0,1,0-.19v-.39a.68.68,0,0,1,.58-.77h4.81V61.37H56.6Q53.52,61.37,53.52,64.45Z" transform="translate(-17.92 -46.76)"/><path class="cls-1" d="M61.55,64.45v.39a2.73,2.73,0,0,0,3.08,3.08h1.53a.68.68,0,0,1,.78.56.74.74,0,0,1,0,.21v.38a.69.69,0,0,1-.6.77H61.55v2.31h4.61c2.06,0,3.08-1,3.08-3.08v-.38c0-2.06-1-3.08-3.08-3.08H64.63a.68.68,0,0,1-.77-.58.61.61,0,0,1,0-.19v-.39a.68.68,0,0,1,.58-.77h4.8V61.37H64.63C62.57,61.37,61.55,62.4,61.55,64.45Z" transform="translate(-17.92 -46.76)"/><path class="cls-1" d="M72.64,61.37,69.41,72.15h2.3l.72-2.31h4l.71,2.31h2.31L76.18,61.37Zm.49,6.16,1.28-3.85,1.28,3.85Z" transform="translate(-17.92 -46.76)"/><polygon class="cls-1" points="64.56 23.08 64.56 14.61 62.26 14.61 62.26 25.39 69.19 25.39 69.19 23.08 64.56 23.08"/><rect class="cls-1" x="38.73" y="13.3" width="1.59" height="3.47"/><rect class="cls-1" x="38.73" y="23.29" width="1.59" height="3.19"/><text class="cls-2" transform="translate(0.13 35.28) scale(1.03 1)">ER<tspan class="cls-3" x="17.82" y="0">P</tspan></text><text class="cls-4" transform="translate(0.13 35.28) scale(1.03 1)">ER<tspan class="cls-3" x="17.82" y="0">P</tspan></text><path class="cls-1" d="M42.77,63.26a5.1,5.1,0,0,0-2.1-1.63,4.52,4.52,0,0,0-4.36-3.73A7,7,0,0,0,34,55.45a6.86,6.86,0,0,0-10,3h7a1,1,0,0,1,1,1V69.59a3.37,3.37,0,0,1-.45,1.67H40a3.31,3.31,0,0,0,2.22-1.05C44.14,67.89,44.2,65.17,42.77,63.26Z" transform="translate(-17.92 -46.76)"/><path class="cls-1" d="M22.47,60.58v-.7a.35.35,0,0,1,.35-.35h7.74a.35.35,0,0,1,.35.35v7.74a.35.35,0,0,1-.35.35h-.7V61.63a1,1,0,0,0-.95-1.05H22.47Z" transform="translate(-17.92 -46.76)"/><path class="cls-1" d="M29.16,61.63v7.73a.35.35,0,0,1-.35.35h-.7V63.37a1,1,0,0,0-1-1H20.72v-.7a.35.35,0,0,1,.35-.35h7.74A.35.35,0,0,1,29.16,61.63Z" transform="translate(-17.92 -46.76)"/><polygon class="cls-1" points="3.15 24.5 1.25 22.6 3.15 22.6 3.15 24.5"/><path class="cls-1" d="M27.06,63H19.32a.35.35,0,0,0-.35.35v5.29h2.45a.35.35,0,0,1,.35.35v2.45h5.29a.35.35,0,0,0,.35-.35V63.37a.35.35,0,0,0-.33-.37Zm-.91,7.5H22.78a.33.33,0,0,1-.31-.32.31.31,0,0,1,.3-.32h3.38a.31.31,0,0,1,.31.31h0a.32.32,0,0,1-.3.34h0Zm0-1.36H22.78a.32.32,0,0,1-.26-.37.32.32,0,0,1,.26-.26h3.37a.32.32,0,0,1,.26.37A.32.32,0,0,1,26.15,69.14Zm-.21-1.71H20.43c-.29,0-.52-.14-.52-.32s.23-.31.52-.31h5.51c.29,0,.52.14.52.31s-.23.34-.52.34Zm0-1.32H20.43c-.29,0-.52-.14-.52-.32s.23-.32.52-.32h5.51c.29,0,.52.15.52.32s-.23.34-.52.34Zm0-1.38H20.43c-.29,0-.52-.15-.52-.32s.23-.32.52-.32h5.51c.29,0,.52.14.52.32s-.23.34-.52.34Z" transform="translate(-17.92 -46.76)"/></svg>