<svg id="Layer_1" data-name="Layer 1" xmlns="http://www.w3.org/2000/svg" viewBox="0 0 69.78 39.55"><defs><style>.cls-1{fill:#20335b;}.cls-2,.cls-3{fill:#1e87c9;}.cls-3,.cls-5{isolation:isolate;font-size:12.83px;font-family:ArialMT, Arial;}.cls-4{letter-spacing:-0.02em;}.cls-5{fill:none;stroke:#1e87c9;stroke-miterlimit:10;stroke-width:0.25px;}.cls-6{fill:#f78e1e;}.cls-7{fill:#54ba5c;}.cls-8{fill:#f8bc16;}.cls-9{fill:#fff;}</style></defs><title>Essal_now_Logo-09</title><path class="cls-1" d="M80.59,106a1.23,1.23,0,0,1-1.17,1.29H77.66a1.25,1.25,0,0,1-1.4-1.08,1,1,0,0,1,0-.34v-1.57c0-.33.15-.49.46-.49s.45.16.46.48v1.59c0,.3.15.46.48.46H79.2a.42.42,0,0,0,.48-.35.29.29,0,0,0,0-.13v-4.71a.41.41,0,0,1,.35-.46h.11c.3,0,.45.16.45.47Z" transform="translate(-48.51 -72)"/><path class="cls-1" d="M82.94,105c.15,0,.23.16.22.48s-.07.47-.23.47h-.56A1.23,1.23,0,0,1,81,104.86a1.07,1.07,0,0,1,0-.31v-3.41c0-.33.15-.5.46-.5s.45.17.45.49v3.43c0,.31.17.46.49.46Z" transform="translate(-48.51 -72)"/><path class="cls-1" d="M82.6,105h1.11v1H82.6Z" transform="translate(-48.51 -72)"/><path class="cls-1" d="M83.52,105h1.11v1H83.52Z" transform="translate(-48.51 -72)"/><path class="cls-1" d="M89.81,105c.15,0,.23.15.23.47s-.07.48-.22.48H88.19c-.32,0-.47-.12-.46-.34v-2.35c0-.32-.15-.47-.46-.47h-.61a.41.41,0,0,0-.47.34.48.48,0,0,0,0,.12v1.25c0,.33.16.49.47.49H87a.41.41,0,0,1,.47.34.48.48,0,0,1,0,.12c0,.33-.16.49-.46.49H84.29c-.15,0-.22-.16-.22-.48s.08-.47.23-.47h1a2.17,2.17,0,0,1,0-.51v-1.23a1.24,1.24,0,0,1,1-1.42,1.45,1.45,0,0,1,.36,0h.61a1.23,1.23,0,0,1,1.38,1.08,1,1,0,0,1,0,.34V105Z" transform="translate(-48.51 -72)"/><path class="cls-1" d="M89.48,105h1.11v1H89.48Z" transform="translate(-48.51 -72)"/><path class="cls-1" d="M94.44,105q.45,0,.45.48a.41.41,0,0,1-.34.47H90.49a.41.41,0,0,1-.46-.35.24.24,0,0,1,0-.12q0-.48.45-.48h.85a2.18,2.18,0,0,1,0-.51v-1.23a1.25,1.25,0,0,1,1-1.42,1.93,1.93,0,0,1,.34,0h.94a1.58,1.58,0,0,1,1,.35.43.43,0,0,1,.21.58.2.2,0,0,1,0,.08.41.41,0,0,1-.64.16,1.14,1.14,0,0,0-.56-.22h-1a.4.4,0,0,0-.46.33.29.29,0,0,0,0,.13v1.26c0,.33.15.49.46.49Z" transform="translate(-48.51 -72)"/><path class="cls-1" d="M95.39,100.32c-.11,0-.16,0-.16-.15s0-.16.15-.16h.16a.49.49,0,0,1,0-.17v-.4a.42.42,0,0,1,.4-.44h.55a.14.14,0,0,1,.16.12v0a.14.14,0,0,1-.12.16H96c-.1,0-.14,0-.14.16v.41c0,.11,0,.16.15.16h.79c.1,0,.15,0,.15.16a.13.13,0,0,1-.11.15h0ZM98.6,106H96.75a1.24,1.24,0,0,1-1.39-1.09,1,1,0,0,1,0-.34v-.11c0-.33.15-.5.45-.5s.46.16.46.49v.14c0,.31.16.46.48.46h.94v-3.92a.41.41,0,0,1,.34-.47h.12a.42.42,0,0,1,.46.37.21.21,0,0,1,0,.11Zm-3.14-2.21v-2.66a.41.41,0,0,1,.34-.47h.12q.45,0,.45.48v2.65Z" transform="translate(-48.51 -72)"/><path class="cls-1" d="M99.77,100.64a.42.42,0,0,1,.46.37v4.48a.43.43,0,0,1-.35.48h-.11c-.31,0-.46-.16-.46-.48V101.6a.4.4,0,0,1-.46-.33.29.29,0,0,1,0-.13.44.44,0,0,1,.35-.5h.57Z" transform="translate(-48.51 -72)"/><path class="cls-1" d="M103.87,101.86a1.24,1.24,0,0,1,1.39,1.07,1.45,1.45,0,0,1,0,.36v2.21c0,.32-.15.47-.46.47h-1.54a1.23,1.23,0,0,1-1.38-1.08,1,1,0,0,1,0-.34v-1.26a1.26,1.26,0,0,1,1-1.43,1.93,1.93,0,0,1,.34,0Zm-1.11-1.2a.43.43,0,0,1,.22-.06.46.46,0,0,1,.23.06.42.42,0,0,1,.17.18.46.46,0,0,1,.06.23.5.5,0,0,1-.06.24.46.46,0,0,1-.4.23.43.43,0,0,1-.22-.06.46.46,0,0,1-.17-.17.5.5,0,0,1-.06-.24.46.46,0,0,1,.06-.23A.42.42,0,0,1,102.76,100.66Zm1.58,2.62a.41.41,0,0,0-.35-.46h-.74c-.3,0-.45.15-.45.47v1.25q0,.48.45.48h1.09Zm-.42-2.62a.43.43,0,0,1,.44,0,.33.33,0,0,1,.17.18.39.39,0,0,1,.07.23.5.5,0,0,1-.06.24.47.47,0,0,1-.4.23.43.43,0,0,1-.22-.06.46.46,0,0,1-.17-.17.5.5,0,0,1-.06-.24.46.46,0,0,1,.06-.23A.42.42,0,0,1,103.92,100.66Z" transform="translate(-48.51 -72)"/><path class="cls-1" d="M107.25,102.34V106a1.23,1.23,0,0,1-1.15,1.29h-.58a.4.4,0,0,1-.45-.34.24.24,0,0,1,0-.12h0c0-.31.15-.47.45-.47h.35a.42.42,0,0,0,.47-.36.24.24,0,0,0,0-.12v-3.48a.47.47,0,0,1,.46-.46.46.46,0,0,1,.46.46h0Z" transform="translate(-48.51 -72)"/><path class="cls-1" d="M108.5,100.64a.41.41,0,0,1,.45.36.21.21,0,0,1,0,.11v4.38q0,.48-.45.48a.42.42,0,0,1-.47-.36.24.24,0,0,1,0-.12V101.6a.41.41,0,0,1-.46-.35v-.11a.44.44,0,0,1,.35-.5h.58Z" transform="translate(-48.51 -72)"/><path class="cls-1" d="M112.46,101.86c.92,0,1.38.49,1.38,1.46v2.18a.4.4,0,0,1-.33.46.29.29,0,0,1-.13,0H111c-.92,0-1.38-.48-1.38-1.45v-.08A.42.42,0,0,1,110,104a.48.48,0,0,1,.12,0c.31,0,.46.16.46.49v.09a.42.42,0,0,0,.35.48h2V103.3c0-.33-.16-.49-.47-.49h-.81a.47.47,0,0,1,0-.94h.81Z" transform="translate(-48.51 -72)"/><path class="cls-1" d="M117.48,106h-1.86a1.24,1.24,0,0,1-1.39-1.06,1.09,1.09,0,0,1,0-.36v-.11c0-.33.15-.5.46-.5s.45.16.45.49v.13a.43.43,0,0,0,.38.47h1v-3.92a.41.41,0,0,1,.34-.47.48.48,0,0,1,.12,0c.3,0,.45.16.45.47Zm-3.15-2.2v-2.66a.42.42,0,0,1,.36-.47h.11c.3,0,.45.16.45.47v2.66Zm.16,4c-.11,0-.16,0-.16-.15a.14.14,0,0,1,.12-.16h.19v-.57c0-.31.15-.47.45-.47h.5c.11,0,.17,0,.17.15s-.06.16-.16.16h-.51a.14.14,0,0,0-.15.13v.44a.14.14,0,0,0,.12.16h.84c.09,0,.14,0,.14.16a.13.13,0,0,1-.11.15h-1.44Z" transform="translate(-48.51 -72)"/><path class="cls-2" d="M84.12,77.61c0,3-1.39,4.58-4.15,4.58H79.6c-2.63,0-4-1.62-4.06-4.42V76.12h2.31v1.79a2,2,0,0,0,4,0V72h2.3Z" transform="translate(-48.51 -72)"/><path class="cls-2" d="M87.73,79.74h1.15v2.31H85.45v-10h2.28Z" transform="translate(-48.51 -72)"/><path class="cls-2" d="M88.25,79.74h4.06v2.31H88.25Z" transform="translate(-48.51 -72)"/><path class="cls-2" d="M91.69,79.74h4.06v2.31H91.69Z" transform="translate(-48.51 -72)"/><path class="cls-2" d="M95.11,82.05V79.74h1.14V76.28h2.31v3.46h.38a2,2,0,0,1,0-.35c0-2.78,1.41-4.29,4.19-4.29h6.42v4.64h1.14v2.31Zm8.11-4.53a1.64,1.64,0,0,0-1.86,1.41,1.77,1.77,0,0,0,0,.46,2,2,0,0,0,0,.35h5.82V77.5Z" transform="translate(-48.51 -72)"/><path class="cls-2" d="M106.79,79.74h5.4V75.06h2.55v7h-7.95Zm2.15,5.91V83.32h2.55v2.33Zm3.2,0V83.32h2.55v2.33Z" transform="translate(-48.51 -72)"/><path class="cls-2" d="M116,82.05v-10h2.29v10Z" transform="translate(-48.51 -72)"/><path class="cls-2" d="M91.3,74c-.16.11-.34.19-.42,0s0-.08,0,0,.37.15.43.19c.58.5.71,1.49,1,2.18a.37.37,0,0,0,.7,0,5.5,5.5,0,0,1,1-2.61.36.36,0,0,0-.51-.51,6.18,6.18,0,0,0-1.24,2.93H93c-.34-1-.9-3.46-2.44-2.8-.44.18-.38.79-.18,1.12a1,1,0,0,0,1.3.27l.07,0c.38-.26,0-.89-.37-.63Z" transform="translate(-48.51 -72)"/><path class="cls-2" d="M91.42,73.75a1.62,1.62,0,0,1-.44,0,.36.36,0,0,0-.19.69,2.26,2.26,0,0,0,.63.07.36.36,0,0,0,0-.72Z" transform="translate(-48.51 -72)"/><path class="cls-2" d="M116,85.08a.86.86,0,0,1,0-.32c0-.82.43-1.85,2.09-1.85v.6c-.53,0-1.41.22-1.41,1" transform="translate(-48.51 -72)"/><path class="cls-2" d="M115.91,85.25v-.11a1.21,1.21,0,0,1-.06-.38c0-.48.16-2,2.26-2h.18v.94h-.18s-1.25.14-1.19,1.11m-.4-.11v-.17c0-.75.7-1.12,1.42-1.17v-.25a1.61,1.61,0,0,0-1.75,1.46v.36" transform="translate(-48.51 -72)"/><rect class="cls-2" x="66.86" y="12.69" width="2.86" height="0.95"/><polygon class="cls-1" points="27.75 25.36 34.66 25.36 34.66 23.05 30.05 23.05 30.05 21.13 34.66 21.13 34.66 18.82 30.05 18.82 30.05 16.9 34.66 16.9 34.66 14.59 27.75 14.59 27.75 25.36"/><path class="cls-2" d="M84.12,89.67v.38a2.73,2.73,0,0,0,3.08,3.08h1.53a.68.68,0,0,1,.77.58.61.61,0,0,1,0,.19v.39a.67.67,0,0,1-.56.76.74.74,0,0,1-.21,0H84.12v2.31h4.61c2.06,0,3.08-1,3.08-3.07V93.9c0-2.05-1-3.08-3.08-3.08H87.2a.68.68,0,0,1-.77-.58.61.61,0,0,1,0-.19v-.38A.68.68,0,0,1,87,88.9a.61.61,0,0,1,.19,0h4.61V86.59H87.2C85.14,86.59,84.12,87.62,84.12,89.67Z" transform="translate(-48.51 -72)"/><path class="cls-1" d="M92.14,89.67v.38q0,3.08,3.08,3.08h1.54a.68.68,0,0,1,.77.58.61.61,0,0,1,0,.19v.39a.68.68,0,0,1-.59.76.54.54,0,0,1-.18,0H92.14v2.31h4.62q3.08,0,3.08-3.07V93.9q0-3.08-3.08-3.08H95.22a.68.68,0,0,1-.77-.58.61.61,0,0,1,0-.19v-.38A.68.68,0,0,1,95,88.9a.61.61,0,0,1,.19,0h4.62V86.59H95.22C93.17,86.59,92.15,87.62,92.14,89.67Z" transform="translate(-48.51 -72)"/><path class="cls-1" d="M103.24,86.59,100,97.36h2.31l.72-2.31h4l.71,2.31H110l-3.23-10.77Zm.48,6.16L105,88.9l1.28,3.85Z" transform="translate(-48.51 -72)"/><polygon class="cls-1" points="64.56 23.05 64.56 14.59 62.26 14.59 62.26 25.36 69.19 25.36 69.19 23.05 64.56 23.05"/><rect class="cls-2" x="38.74" y="13.27" width="1.59" height="3.47"/><rect class="cls-2" x="38.74" y="23.26" width="1.59" height="3.19"/><text class="cls-3" transform="translate(0.13 35.26) scale(1.03 1)">ER<tspan class="cls-4" x="17.82" y="0">P</tspan></text><text class="cls-5" transform="translate(0.13 35.26) scale(1.03 1)">ER<tspan class="cls-4" x="17.82" y="0">P</tspan></text><path class="cls-6" d="M73.36,88.48a5,5,0,0,0-2.1-1.64,4.52,4.52,0,0,0-4.36-3.72,6.9,6.9,0,0,0-12.33.54h7a1,1,0,0,1,1,1V94.8a3.36,3.36,0,0,1-.44,1.67h8.42a3.32,3.32,0,0,0,2.22-1C74.74,93.1,74.79,90.39,73.36,88.48Z" transform="translate(-48.51 -72)"/><path class="cls-2" d="M53.06,85.79v-.7a.35.35,0,0,1,.35-.35h7.74a.35.35,0,0,1,.35.35v7.74a.35.35,0,0,1-.35.35h-.7V86.84a1,1,0,0,0-1-1H59.4Z" transform="translate(-48.51 -72)"/><path class="cls-7" d="M59.75,86.84v7.74a.35.35,0,0,1-.35.35h-.7V88.59a1,1,0,0,0-1-1H51.32v-.7a.35.35,0,0,1,.35-.35H59.4A.35.35,0,0,1,59.75,86.84Z" transform="translate(-48.51 -72)"/><polygon class="cls-8" points="3.15 24.47 1.25 22.58 3.15 22.58 3.15 24.47"/><path class="cls-8" d="M49.92,88.24h7.74a.35.35,0,0,1,.35.35v7.74a.35.35,0,0,1-.35.35h-5.3V94.23a.35.35,0,0,0-.34-.35H49.57V88.59A.35.35,0,0,1,49.92,88.24Z" transform="translate(-48.51 -72)"/><path class="cls-9" d="M57.06,89.65c0,.17-.23.31-.52.31H51c-.28,0-.51-.14-.51-.31s.23-.32.51-.32h5.52C56.83,89.33,57.06,89.47,57.06,89.65Z" transform="translate(-48.51 -72)"/><path class="cls-9" d="M57.06,91c0,.18-.23.32-.52.32H51c-.28,0-.51-.14-.51-.32s.23-.32.51-.32h5.52C56.83,90.71,57.06,90.85,57.06,91Z" transform="translate(-48.51 -72)"/><path class="cls-9" d="M57.06,92.35c0,.18-.23.32-.52.32H51c-.28,0-.51-.14-.51-.32S50.74,92,51,92h5.52C56.83,92,57.06,92.18,57.06,92.35Z" transform="translate(-48.51 -72)"/><path class="cls-9" d="M57.06,94.06a.31.31,0,0,1-.3.32H53.38a.32.32,0,0,1-.26-.37.32.32,0,0,1,.26-.26h3.37A.31.31,0,0,1,57.06,94.06Z" transform="translate(-48.51 -72)"/><path class="cls-9" d="M57.06,95.42a.33.33,0,0,1-.31.32H53.38a.33.33,0,0,1-.31-.32.31.31,0,0,1,.3-.32h3.38a.31.31,0,0,1,.31.31Z" transform="translate(-48.51 -72)"/></svg>